<svg xmlns="http://www.w3.org/2000/svg" fill="none" viewBox="0 0 24 24" id="general-launchpad"><path fill="currentColor" d="M5.888 12.585A22.518 22.518 0 0 1 2.023 3.16a.999.999 0 0 1 1.15-1.147 22.48 22.48 0 0 1 4.22 1.119.999.999 0 1 1-.696 1.872 20.538 20.538 0 0 0-2.417-.733 20.577 20.577 0 0 0 3.242 7.162.999.999 0 1 1-1.634 1.152Zm5.545 3.893a20.565 20.565 0 0 1-7.162 3.241c.19-.8.428-1.589.712-2.36a.999.999 0 1 0-1.875-.69 22.485 22.485 0 0 0-1.095 4.158 1 1 0 0 0 1.147 1.15 22.518 22.518 0 0 0 9.425-3.866 1 1 0 0 0-1.152-1.633Zm5.286-5.304a1 1 0 0 0-.241 1.393 20.57 20.57 0 0 1 3.241 7.162c-.8-.19-1.59-.428-2.361-.713a.999.999 0 0 0-.692 1.874c1.347.498 2.748.867 4.16 1.097a.97.97 0 0 0 .317.001 1 1 0 0 0 .834-1.148 22.515 22.515 0 0 0-3.866-9.424.999.999 0 0 0-1.392-.242Zm4.873-8.97a1.006 1.006 0 0 0-.752-.18 22.512 22.512 0 0 0-9.424 3.865.999.999 0 1 0 1.151 1.633 20.586 20.586 0 0 1 7.162-3.241 20.364 20.364 0 0 1-.725 2.394 1 1 0 0 0 1.873.695 22.528 22.528 0 0 0 1.11-4.196 1 1 0 0 0-.395-.97Z"/></svg>