<svg viewBox="0 0 226 43" xmlns="http://www.w3.org/2000/svg" data-logo="logo">
        <g style="opacity: 1;" transform="translate(0, 1.5) rotate(0)" id="logogram"><path fill="#297AFF" d="M43 31L31 40H5L7 35L12 31H29L32 35L40 11L45 7H50L43 31ZM43 5L38 9H21L18 5L10 29L5 33H0L7 9L19 0H45L43 5ZM24 13H35L29 31L26 27H15L21 9L24 13Z"></path></g>
        <g style="opacity: 1;" transform="translate(56, 1)" id="logotype"><path d="M19.43 33.34L19.43 33.34Q16.05 33.34 13.37 31.80Q10.70 30.27 9.15 27.34Q7.61 24.42 7.61 20.29L7.61 20.29Q7.61 16.13 9.16 13.20Q10.72 10.27 13.40 8.73Q16.08 7.19 19.43 7.19L19.43 7.19Q21.60 7.19 23.47 7.80Q25.35 8.41 26.80 9.57Q28.25 10.73 29.17 12.42Q30.10 14.10 30.39 16.23L30.39 16.23L25.11 16.23Q24.94 15.19 24.45 14.38Q23.96 13.57 23.24 13.00Q22.51 12.42 21.57 12.12Q20.63 11.83 19.54 11.83L19.54 11.83Q17.55 11.83 16.05 12.82Q14.54 13.81 13.72 15.70Q12.90 17.58 12.90 20.29L12.90 20.29Q12.90 23.04 13.74 24.92Q14.58 26.80 16.07 27.75Q17.55 28.71 19.52 28.71L19.52 28.71Q20.61 28.71 21.54 28.41Q22.47 28.11 23.22 27.54Q23.96 26.97 24.45 26.15Q24.94 25.33 25.12 24.30L25.12 24.30L30.40 24.30Q30.20 26.06 29.35 27.69Q28.51 29.31 27.11 30.59Q25.70 31.87 23.77 32.61Q21.84 33.34 19.43 33.34ZM36.93 33L31.80 33L31.80 13.89L36.76 13.89L36.76 17.23L36.96 17.23Q37.49 15.45 38.73 14.54Q39.97 13.64 41.58 13.64L41.58 13.64Q41.97 13.64 42.42 13.68Q42.88 13.72 43.24 13.81L43.24 13.81L43.24 18.39Q42.89 18.27 42.25 18.20Q41.60 18.13 41.02 18.13L41.02 18.13Q39.85 18.13 38.91 18.64Q37.97 19.14 37.45 20.04Q36.93 20.93 36.93 22.13L36.93 22.13L36.93 33ZM43.64 39.77L43.64 39.77L44.82 35.91L45.46 36.06Q46.48 36.33 47.28 36.21Q48.09 36.09 48.58 35.56Q49.06 35.03 49.16 34.08L49.16 34.08L49.30 33.05L42.12 13.89L47.58 13.89L50.79 23.81Q51.37 25.69 51.74 27.57Q52.10 29.45 52.58 31.50L52.58 31.50L51.39 31.50Q51.85 29.45 52.31 27.56Q52.77 25.67 53.39 23.81L53.39 23.81L56.74 13.89L62.12 13.89L54.00 35.26Q53.42 36.79 52.51 37.92Q51.61 39.05 50.26 39.67Q48.91 40.28 46.99 40.28L46.99 40.28Q45.97 40.28 45.08 40.14Q44.19 39.99 43.64 39.77ZM67.71 40.14L62.58 40.14L62.58 13.89L67.62 13.89L67.62 17.11L67.86 17.11Q68.22 16.35 68.88 15.55Q69.53 14.75 70.61 14.20Q71.69 13.65 73.31 13.65L73.31 13.65Q75.43 13.65 77.19 14.75Q78.95 15.84 80.00 18.03Q81.05 20.22 81.05 23.48L81.05 23.48Q81.05 26.66 80.03 28.86Q79.00 31.05 77.24 32.19Q75.48 33.32 73.28 33.32L73.28 33.32Q71.72 33.32 70.64 32.79Q69.57 32.27 68.89 31.49Q68.22 30.71 67.86 29.94L67.86 29.94L67.71 29.94L67.71 40.14ZM71.70 29.21L71.70 29.21Q73.04 29.21 73.95 28.47Q74.87 27.74 75.34 26.44Q75.81 25.14 75.81 23.46L75.81 23.46Q75.81 21.79 75.34 20.51Q74.87 19.23 73.96 18.49Q73.05 17.76 71.70 17.76L71.70 17.76Q70.39 17.76 69.47 18.47Q68.54 19.17 68.06 20.45Q67.59 21.72 67.59 23.46L67.59 23.46Q67.59 25.19 68.07 26.48Q68.56 27.77 69.48 28.49Q70.41 29.21 71.70 29.21ZM86.78 33L81.02 33L89.71 7.54L96.55 7.54L105.47 33L99.68 33L95.59 20.71Q94.86 18.34 94.10 15.51Q93.34 12.68 92.50 9.33L92.50 9.33L93.63 9.33Q92.83 12.70 92.12 15.54Q91.41 18.39 90.71 20.71L90.71 20.71L86.78 33ZM100.04 27.09L86.45 27.09L86.45 23.00L100.04 23.00L100.04 27.09ZM106.22 7.54L111.35 7.54L111.35 33L106.22 33L106.22 7.54ZM121.91 40.55L121.91 40.55Q119.53 40.55 117.76 39.95Q115.98 39.34 114.87 38.28Q113.76 37.22 113.33 35.87L113.33 35.87L117.74 34.64Q117.98 35.17 118.48 35.67Q118.99 36.18 119.82 36.50Q120.66 36.83 121.89 36.83L121.89 36.83Q123.86 36.83 124.98 35.93Q126.10 35.03 126.10 33.14L126.10 33.14L126.10 29.62L125.70 29.62Q125.36 30.39 124.71 31.10Q124.06 31.82 123.01 32.27Q121.96 32.73 120.40 32.73L120.40 32.73Q118.25 32.73 116.49 31.72Q114.73 30.71 113.68 28.64Q112.63 26.57 112.63 23.41L112.63 23.41Q112.63 20.18 113.70 18.01Q114.76 15.84 116.53 14.75Q118.30 13.65 120.42 13.65L120.42 13.65Q122.03 13.65 123.12 14.19Q124.22 14.73 124.89 15.54Q125.57 16.35 125.91 17.11L125.91 17.11L126.13 17.11L126.13 13.89L131.17 13.89L131.17 32.85Q131.17 35.43 129.98 37.14Q128.80 38.86 126.71 39.71Q124.63 40.55 121.91 40.55ZM122.01 28.83L122.01 28.83Q123.33 28.83 124.24 28.18Q125.16 27.53 125.63 26.31Q126.11 25.09 126.11 23.38L126.11 23.38Q126.11 21.69 125.63 20.42Q125.16 19.16 124.24 18.46Q123.33 17.76 122.01 17.76L122.01 17.76Q120.66 17.76 119.75 18.48Q118.83 19.21 118.36 20.47Q117.89 21.74 117.89 23.38L117.89 23.38Q117.89 25.05 118.36 26.28Q118.83 27.50 119.75 28.16Q120.68 28.83 122.01 28.83ZM141.82 33.38L141.82 33.38Q138.94 33.38 136.84 32.14Q134.74 30.90 133.60 28.68Q132.47 26.47 132.47 23.53L132.47 23.53Q132.47 20.56 133.60 18.35Q134.74 16.13 136.84 14.89Q138.94 13.65 141.82 13.65L141.82 13.65Q144.70 13.65 146.80 14.89Q148.89 16.13 150.03 18.35Q151.16 20.56 151.16 23.53L151.16 23.53Q151.16 26.47 150.03 28.68Q148.89 30.90 146.80 32.14Q144.70 33.38 141.82 33.38ZM141.82 29.34L141.82 29.34Q143.18 29.34 144.11 28.58Q145.03 27.82 145.49 26.50Q145.95 25.17 145.95 23.52L145.95 23.52Q145.95 21.82 145.49 20.51Q145.03 19.19 144.11 18.44Q143.18 17.69 141.82 17.69L141.82 17.69Q140.45 17.69 139.53 18.44Q138.62 19.19 138.16 20.51Q137.70 21.82 137.70 23.52L137.70 23.52Q137.70 25.17 138.16 26.50Q138.62 27.82 139.53 28.58Q140.45 29.34 141.82 29.34ZM160.05 33.38L160.05 33.38Q157.74 33.38 155.96 32.72Q154.19 32.06 153.06 30.80Q151.93 29.55 151.61 27.77L151.61 27.77L156.37 26.95Q156.75 28.28 157.69 28.95Q158.63 29.62 160.20 29.62L160.20 29.62Q161.65 29.62 162.51 29.06Q163.36 28.51 163.36 27.65L163.36 27.65Q163.36 26.90 162.76 26.42Q162.15 25.94 160.90 25.69L160.90 25.69L157.60 25.00Q154.84 24.44 153.47 23.08Q152.10 21.72 152.10 19.58L152.10 19.58Q152.10 17.74 153.11 16.41Q154.12 15.09 155.91 14.37Q157.71 13.65 160.13 13.65L160.13 13.65Q162.39 13.65 164.05 14.28Q165.71 14.90 166.73 16.05Q167.76 17.19 168.10 18.75L168.10 18.75L163.55 19.55Q163.26 18.58 162.43 17.95Q161.60 17.33 160.20 17.33L160.20 17.33Q158.94 17.33 158.08 17.86Q157.23 18.39 157.23 19.26L157.23 19.26Q157.23 19.99 157.78 20.49Q158.34 20.99 159.69 21.26L159.69 21.26L163.12 21.94Q165.89 22.51 167.24 23.78Q168.59 25.05 168.59 27.10L168.59 27.10Q168.59 28.98 167.50 30.39Q166.41 31.80 164.48 32.59Q162.56 33.38 160.05 33.38Z" fill="#ffffff"></path></g>
        
      </svg>